:SAMPLES-PER-SECOND 30
:FULLY-SPECIFIED
:DEGREES
568
root  -19.2069 28.4868 1.98931 -22.5181 -88.489 28.2218
RightUpLeg  -60.9919 -11.7347 -3.16292
RightLeg  87.3475 0.266279 -2.70541
RightFoot  -30.0962 -0.146961 0.349778
RightToes  -3.31784e-009 0 -3.6325e-017
Spine  69.984 -5.78126 6.65409
Spine1  -3.51776 -1.63948 -1.83771
HEad  -49.7876 -5.33774 -4.33232
LeftShoulder1  1.30918 -0.110933 -30.1534
LeftArm  -6.47043 -7.35744 -43.6169
LeftForeArm  30.2727 -54.4801 -13.2215
LeftHand  -0.0127317 5.73069 4.35888
RightShoulder  0.0655445 -3.2613 24.0332
RightArm  -1.66341 16.5497 46.3494
RightForeArm  18.5349 50.8335 12.3704
RightHand  -0.74194 7.1316 -7.21368
LeftUpLeg  -65.9402 0.131789 -1.17232
LeftLeg  83.9089 -0.0764876 2.67955
LeftFoot  -22.1558 0.581367 4.73056
LeftToes  1.28511e-009 -3.60458e-011 6.16399e-011
569
root  -19.5456 28.3476 2.03179 -26.5378 -87.7686 31.6249
RightUpLeg  -59.8987 -11.0464 -4.28613
RightLeg  88.5091 0.335231 -4.08203
RightFoot  -31.3606 -0.0664776 0.833774
RightToes  -3.31784e-009 0 -3.6325e-017
Spine  71.6616 -6.86596 6.76561
Spine1  -4.10277 -2.46114 -2.37609
HEad  -51.3378 -5.43458 -4.48777
LeftShoulder1  1.31738 -0.131115 -30.1613
LeftArm  -5.44709 -8.33875 -44.2477
LeftForeArm  27.2492 -51.7691 -12.1038
LeftHand  0.00887154 6.29139 4.78586
RightShoulder  0.052812 -3.30455 24.3478
RightArm  -0.958174 17.0981 46.9647
RightForeArm  18.1783 50.0701 12.0378
RightHand  -0.76676 7.64014 -7.17718
LeftUpLeg  -65.0853 -1.59533 -1.3279
LeftLeg  84.9319 -0.0647447 3.7736
LeftFoot  -23.3185 0.546183 3.86864
LeftToes  1.28511e-009 -3.60458e-011 6.16399e-011
570
root  -19.9376 28.309 2.0618 -28.8477 -87.087 33.6417
RightUpLeg  -58.7895 -10.2657 -5.25872
RightLeg  89.2501 0.419097 -5.42923
RightFoot  -32.5328 0.00398804 1.20397
RightToes  -3.31784e-009 0 -3.6325e-017
Spine  73.4714 -8.12239 7.36681
Spine1  -6.29947 -3.0214 -3.39444
HEad  -52.4111 -6.28418 -3.99388
LeftShoulder1  1.55881 -0.733504 -30.7426
LeftArm  -4.04591 -9.7071 -44.0761
LeftForeArm  23.2198 -48.4509 -10.9231
LeftHand  0.0218111 7.44108 3.51551
RightShoulder  0.0574488 -3.29366 25.0787
RightArm  -0.709144 16.7386 46.7954
RightForeArm  16.9662 49.2039 11.7414
RightHand  -0.840013 8.33012 -7.45339
LeftUpLeg  -64.1821 -3.4116 -1.47064
LeftLeg  85.5332 -0.0488798 5.0255
LeftFoot  -24.477 0.484639 2.9287
LeftToes  1.28511e-009 -3.60458e-011 6.16399e-011
571
root  -20.4017 28.4064 2.11068 -31.7418 -86.5549 36.3139
RightUpLeg  -57.2256 -9.44602 -6.19953
RightLeg  89.3785 0.457405 -6.52346
RightFoot  -33.8067 0.0972808 1.65315
RightToes  -3.31784e-009 0 -3.6325e-017
Spine  74.8995 -9.4258 7.81568
Spine1  -7.9505 -3.72493 -4.44489
HEad  -55.4931 -6.58681 -4.5857
LeftShoulder1  1.6373 -0.921164 -30.9572
LeftArm  -3.3492 -11.984 -44.9029
LeftForeArm  18.7927 -45.1157 -9.93882
LeftHand  0.00521003 8.25006 1.98893
RightShoulder  0.0913755 -3.18652 25.2891
RightArm  -0.403379 17.9293 47.4814
RightForeArm  15.6008 47.2362 11.0113
RightHand  -1.01408 9.37643 -8.33798
LeftUpLeg  -62.81 -5.27483 -1.61591
LeftLeg  85.6227 0.000604948 6.37128
LeftFoot  -25.6592 0.382977 1.82501
LeftToes  1.28511e-009 -3.60458e-011 6.16399e-011
572
root  -20.9595 28.6428 2.14229 -40.6462 -86.5567 44.7837
RightUpLeg  -54.9479 -8.21648 -6.96034
RightLeg  88.8195 0.40684 -7.42835
RightFoot  -35.097 0.200684 2.08858
RightToes  -3.31784e-009 0 -3.6325e-017
Spine  75.9464 -10.0883 7.59794
Spine1  -8.77272 -4.28147 -5.50227
HEad  -59.4516 -6.2843 -4.87572
LeftShoulder1  1.57743 -0.685009 -31.6164
LeftArm  -2.64707 -16.1121 -45.4002
LeftForeArm  13.1703 -41.5624 -9.06427
LeftHand  0.0164827 6.63888 4.36021
RightShoulder  0.0636375 -3.27945 26.0224
RightArm  0.732249 21.6377 48.1301
RightForeArm  13.5258 44.4017 10.0423
RightHand  -1.11109 10.5253 -8.48038
LeftUpLeg  -60.5929 -6.6976 -1.73647
LeftLeg  85.2952 0.115222 7.98049
LeftFoot  -27.0093 0.215056 0.383275
LeftToes  1.28511e-009 -3.60458e-011 6.16399e-011
573
root  -21.6314 28.9103 2.11628 -57.1924 -86.5303 61.4366
RightUpLeg  -53.0628 -6.74778 -7.85111
RightLeg  88.1523 0.318069 -7.88082
RightFoot  -36.6135 0.45451 3.14298
RightToes  -3.31784e-009 0 -3.6325e-017
Spine  75.5395 -9.51909 6.47173
Spine1  -9.07821 -4.59949 -5.62858
HEad  -63.3585 -6.04553 -5.14074
LeftShoulder1  1.48507 -0.425669 -31.7442
LeftArm  -3.37338 -20.336 -46.7386
LeftForeArm  9.14285 -39.6952 -8.70737
LeftHand  0.0160111 6.16842 6.09257
RightShoulder  0.0733984 -3.24823 25.873
RightArm  0.350405 26.1897 49.3457
RightForeArm  12.2027 43.5345 9.80118
RightHand  -1.13552 10.3046 -8.73746
LeftUpLeg  -58.5861 -7.89932 -2.0993
LeftLeg  84.7849 0.300077 9.93314
LeftFoot  -28.3453 0.0274176 -0.96058
LeftToes  1.28511e-009 -3.60458e-011 6.16399e-011
574
root  -22.4385 29.1967 2.11939 -67.2823 -86.56 71.669
RightUpLeg  -50.7588 -5.85793 -8.27371
RightLeg  87.2084 0.183953 -8.05524
RightFoot  -38.1227 0.715588 4.10153
RightToes  -3.31784e-009 0 -3.6325e-017
Spine  73.789 -8.96877 5.75054
Spine1  -9.0056 -4.75197 -5.59263
HEad  -66.211 -5.91589 -5.29463
LeftShoulder1  1.46843 -0.448263 -31.1125
LeftArm  -5.92248 -23.9112 -47.9205
LeftForeArm  11.7748 -41.9004 -9.26396
LeftHand  0.0339156 6.48836 6.49847
RightShoulder  0.0594238 -3.28824 25.3073
RightArm  -2.17274 30.277 49.8482
RightForeArm  11.9612 47.6797 11.4962
RightHand  -1.51094 12.728 -10.0659
LeftUpLeg  -56.3602 -9.24323 -2.25857
LeftLeg  84.3335 0.520976 12.0753
LeftFoot  -29.7696 -0.159673 -2.08631
LeftToes  1.28511e-009 -3.60458e-011 6.16399e-011
575
root  -23.3943 29.4551 2.11594 -72.4668 -86.5522 77.3454
RightUpLeg  -48.4845 -5.99874 -8.50071
RightLeg  86.2595 0.0646426 -7.4625
RightFoot  -39.6849 0.917299 4.71335
RightToes  -3.31784e-009 0 -3.6325e-017
Spine  70.2188 -8.2196 5.15103
Spine1  -8.57406 -4.83352 -5.01215
HEad  -67.2671 -5.16323 -5.43752
LeftShoulder1  1.40194 -0.218001 -31.6095
LeftArm  -9.305 -27.7156 -46.7998
LeftForeArm  17.7961 -49.7727 -11.9725
LeftHand  0.0302305 6.53691 5.89307
RightShoulder  0.10672 -3.12798 24.3215
RightArm  -6.72141 34.3745 48.6233
RightForeArm  16.9348 56.7887 15.9167
RightHand  -1.572 12.6895 -10.4634
LeftUpLeg  -54.2671 -10.0785 -2.43126
LeftLeg  83.9438 0.694278 13.2542
LeftFoot  -31.5677 -0.3831 -3.2117
LeftToes  1.28511e-009 -3.60458e-011 6.16399e-011
576
root  -24.5434 29.7524 2.03378 -79.5658 -86.0715 85.1657
RightUpLeg  -46.0326 -6.61985 -9.06932
RightLeg  85.1056 -0.0372665 -6.4908
RightFoot  -41.3323 1.06427 5.02683
RightToes  -3.31784e-009 0 -3.6325e-017
Spine  64.8677 -6.94085 3.93701
Spine1  -7.41519 -4.70637 -4.56341
HEad  -67.3213 -4.47121 -5.54703
LeftShoulder1  1.33 -0.163675 -30.2007
LeftArm  -14.243 -30.9522 -46.4527
LeftForeArm  23.3485 -61.5342 -19.0534
LeftHand  -0.00696611 5.73975 6.01415
RightShoulder  0.162261 -2.93114 23.3252
RightArm  -12.7767 38.814 45.3324
RightForeArm  25.8971 67.3868 25.7352
RightHand  -1.66154 12.5141 -11.1316
LeftUpLeg  -51.8114 -10.1589 -3.17229
LeftLeg  83.1854 0.942165 14.0159
LeftFoot  -33.3179 -0.565954 -3.95585
LeftToes  1.28511e-009 -3.60458e-011 6.16399e-011
577
root  -25.9094 30.3187 1.85025 -86.7181 -84.9061 92.9865
RightUpLeg  -42.4996 -7.3998 -10.2086
RightLeg  82.6275 -0.20591 -5.21149
RightFoot  -42.9393 1.29383 5.61927
RightToes  -3.31784e-009 0 -3.6325e-017
Spine  58.8317 -4.59549 1.37238
Spine1  -6.66227 -4.1256 -2.92487
HEad  -65.8779 -4.21838 -6.21278
LeftShoulder1  1.25373 -0.180838 -27.9213
LeftArm  -20.0857 -34.1191 -45.645
LeftForeArm  43.2412 -74.0009 -38.4339
LeftHand  -0.0677338 4.50115 6.54416
RightShoulder  0.162372 -2.90088 21.8039
RightArm  -20.4034 41.6278 40.1962
RightForeArm  52.4961 77.2862 53.2695
RightHand  -1.72302 12.6447 -11.4486
LeftUpLeg  -48.0518 -8.95461 -4.69771
LeftLeg  80.9082 1.47375 13.7068
LeftFoot  -34.7182 -0.565512 -3.74968
LeftToes  1.28511e-009 -3.60458e-011 6.16399e-011
578
root  -27.5843 31.2142 1.63357 -88.2609 -83.9681 96.4039
RightUpLeg  -38.914 -8.78626 -10.8061
RightLeg  78.2379 -0.405312 -3.94071
RightFoot  -43.4283 1.28217 5.48936
RightToes  -3.31784e-009 0 -3.6325e-017
Spine  50.7307 -2.45206 -1.15812
Spine1  -6.44167 -3.36999 -1.13279
HEad  -63.4455 -2.96083 -7.11983
LeftShoulder1  1.15276 -0.265315 -24.3787
LeftArm  -27.0607 -35.6613 -43.9194
LeftForeArm  105.792 -80.0303 -100.1
LeftHand  -0.0280045 5.28454 6.60274
RightShoulder  0.168779 -2.8474 20.1877
RightArm  -27.587 40.9632 34.7262
RightForeArm  111.319 78.8147 114.225
RightHand  -1.91918 12.1439 -13.0339
LeftUpLeg  -44.2865 -7.30154 -5.74115
LeftLeg  76.8216 2.2898 12.7241
LeftFoot  -35.43 -0.484968 -3.27134
LeftToes  1.28511e-009 -3.60458e-011 6.16399e-011
579
root  -29.6329 32.5303 1.43181 -92.0197 -83.1727 103.521
RightUpLeg  -35.5217 -9.97756 -11.1319
RightLeg  71.3155 -0.359105 -2.16058
RightFoot  -42.1208 1.35025 5.91576
RightToes  -3.31784e-009 0 -3.6325e-017
Spine  39.8286 -0.908844 -3.29602
Spine1  -5.98718 -2.37022 -0.336755
HEad  -58.308 -1.90823 -7.46781
LeftShoulder1  0.955379 0.020464 -20.9306
LeftArm  -33.072 -34.2333 -41.4267
LeftForeArm  148.238 -72.8501 -145.589
LeftHand  -0.0345127 5.15943 6.34573
RightShoulder  0.102377 -3.08968 19.6259
RightArm  -30.0457 36.0865 31.5202
RightForeArm  141.437 72.3562 145.577
RightHand  -1.967 12.0354 -13.4235
LeftUpLeg  -40.7021 -4.8877 -6.41307
LeftLeg  70.5168 3.12419 10.7236
LeftFoot  -34.41 -0.462146 -3.26284
LeftToes  1.28511e-009 -3.60458e-011 6.16399e-011
